<?xml version="1.0" standalone="no"?>
<!DOCTYPE svg PUBLIC "-//W3C//DTD SVG 20010904//EN"
 "http://www.w3.org/TR/2001/REC-SVG-20010904/DTD/svg10.dtd">
<svg version="1.0" xmlns="http://www.w3.org/2000/svg"
 width="512.000000pt" height="512.000000pt" viewBox="0 0 512.000000 512.000000"
 preserveAspectRatio="xMidYMid meet">

<g transform="translate(0.000000,512.000000) scale(0.100000,-0.100000)"
fill="#000000" stroke="none">
<path d="M615 3117 c-196 -170 -210 -185 -213 -219 -4 -47 24 -78 72 -78 29 0
56 20 199 144 l166 143 98 -96 c54 -54 120 -115 146 -137 l48 -39 -161 -185
c-136 -157 -160 -190 -160 -217 0 -47 31 -75 78 -71 34 3 49 17 198 188 89
101 166 186 171 187 5 2 47 -20 94 -48 46 -28 134 -76 194 -106 61 -30 110
-60 109 -66 -1 -7 -53 -93 -118 -191 -66 -102 -116 -189 -116 -203 0 -48 64
-86 114 -67 8 3 74 97 146 210 l132 203 33 -14 c50 -20 240 -72 317 -86 61
-11 67 -14 63 -33 -21 -86 -85 -425 -85 -446 0 -35 38 -70 76 -70 55 0 68 27
108 235 21 105 42 210 47 235 l10 45 191 0 192 0 46 -230 c26 -126 52 -240 58
-252 24 -44 99 -42 128 3 16 23 14 36 -30 257 -25 128 -46 237 -46 243 0 6 36
18 80 28 43 9 130 33 191 52 61 20 115 32 119 27 4 -4 63 -93 130 -198 67
-104 129 -196 138 -203 42 -32 122 8 122 61 0 14 -53 105 -125 217 -69 106
-125 194 -123 195 2 1 54 28 117 59 63 32 150 80 194 107 44 27 84 48 90 46 6
-2 85 -88 176 -193 154 -175 169 -189 203 -192 47 -4 78 24 78 70 0 28 -25 61
-165 223 l-165 190 62 54 c35 30 99 92 144 138 l80 83 174 -150 c149 -129 178
-150 206 -150 48 0 76 31 72 78 -3 34 -17 49 -213 219 -208 181 -211 183 -257
183 -39 0 -50 -5 -67 -26 -12 -15 -21 -34 -21 -44 0 -23 -154 -169 -270 -256
-466 -349 -1011 -527 -1480 -484 -179 16 -314 44 -485 101 -316 106 -655 305
-897 529 -57 52 -81 82 -90 111 -14 47 -40 69 -83 69 -25 0 -68 -33 -240 -183z"/>
</g>
</svg>
