<?xml version="1.0" encoding="iso-8859-1"?>
<!-- Generator: Adobe Illustrator 19.0.0, SVG Export Plug-In . SVG Version: 6.00 Build 0)  -->
<svg version="1.1" id="Capa_1" xmlns="http://www.w3.org/2000/svg" xmlns:xlink="http://www.w3.org/1999/xlink" x="0px" y="0px"
	 viewBox="0 0 512 512" style="enable-background:new 0 0 512 512;" xml:space="preserve">
<g>
	<g>
		<path d="M450.999,135c0-24.813-20.187-45-45-45h-17.58c-6.192-17.458-22.865-30-42.42-30H327.71l-6.479-25.914
			C316.214,14.017,298.262,0,277.575,0h-43.153c-20.687,0-38.639,14.017-43.657,34.086L184.287,60h-18.288
			c-19.555,0-36.228,12.542-42.42,30h-17.58c-24.813,0-45,20.187-45,45v332c0,24.813,20.187,45,45,45h300.003
			c12.01,0,23.299-4.646,31.787-13.081c8.521-8.468,13.213-19.757,13.212-31.787C450.999,371.428,450.999,135,450.999,135z
			 M150.999,105c0-8.271,6.729-15,15-15h30c6.883,0,12.883-4.685,14.552-11.362l9.319-37.276C221.542,34.672,227.526,30,234.422,30
			h43.153c6.896,0,12.88,4.672,14.552,11.362l9.319,37.276c1.67,6.677,7.67,11.362,14.553,11.362h30c8.271,0,15,6.729,15,15v15h-210
			V105z M416.642,477.64c-2.829,2.811-6.607,4.359-10.64,4.359H105.999c-8.271,0.001-15-6.728-15-14.999V135c0-8.271,6.729-15,15-15
			h15v15c0,8.284,6.716,15,15,15h240c8.284,0,15-6.716,15-15v-15h15c8.271,0,15,6.729,15,15c0,0,0,236.429,0.003,332.133
			C421.002,471.114,419.454,474.845,416.642,477.64z"/>
	</g>
</g>
<g>
	<g>
		<path d="M236.603,185.394c-5.855-5.859-15.353-5.859-21.211,0l-49.394,49.393l-19.394-19.393c-5.857-5.858-15.355-5.858-21.213,0
			c-5.858,5.858-5.858,15.355,0,21.213l30,30c2.929,2.929,6.768,4.394,10.606,4.394s7.678-1.464,10.606-4.394l60-60
			C242.461,200.749,242.461,191.252,236.603,185.394z"/>
	</g>
</g>
<g>
	<g>
		<path d="M236.603,275.394c-5.855-5.859-15.353-5.859-21.211,0l-49.394,49.393l-19.394-19.393c-5.857-5.858-15.355-5.858-21.213,0
			c-5.858,5.858-5.858,15.355,0,21.213l30,30c2.929,2.929,6.768,4.394,10.606,4.394s7.678-1.464,10.606-4.394l60-60
			C242.461,290.749,242.461,281.252,236.603,275.394z"/>
	</g>
</g>
<g>
	<g>
		<path d="M236.603,365.394c-5.855-5.859-15.353-5.859-21.211,0l-49.394,49.393l-19.394-19.393c-5.857-5.858-15.355-5.858-21.213,0
			c-5.858,5.858-5.858,15.355,0,21.213l30,30c2.929,2.929,6.768,4.394,10.606,4.394s7.678-1.464,10.606-4.394l60-60
			C242.461,380.749,242.461,371.252,236.603,365.394z"/>
	</g>
</g>
<g>
	<g>
		<path d="M375.999,211h-90c-8.284,0-15,6.716-15,15s6.716,15,15,15h90c8.284,0,15-6.716,15-15S384.283,211,375.999,211z"/>
	</g>
</g>
<g>
	<g>
		<path d="M375.999,301h-90c-8.284,0-15,6.716-15,15s6.716,15,15,15h90c8.284,0,15-6.716,15-15S384.283,301,375.999,301z"/>
	</g>
</g>
<g>
	<g>
		<path d="M375.999,391h-90c-8.284,0-15,6.716-15,15s6.716,15,15,15h90c8.284,0,15-6.716,15-15S384.283,391,375.999,391z"/>
	</g>
</g>
<g>
	<g>
		<circle cx="256" cy="75" r="15"/>
	</g>
</g>
<g>
</g>
<g>
</g>
<g>
</g>
<g>
</g>
<g>
</g>
<g>
</g>
<g>
</g>
<g>
</g>
<g>
</g>
<g>
</g>
<g>
</g>
<g>
</g>
<g>
</g>
<g>
</g>
<g>
</g>
</svg>
