<svg xmlns="http://www.w3.org/2000/svg" width="390.002" height="512" viewBox="0 0 390.002 512">
  <g id="copyToClipboard" transform="translate(-60.999)">
    <g id="Group_72" data-name="Group 72">
      <g id="Group_71" data-name="Group 71">
        <path id="Path_101" data-name="Path 101" d="M451,135a45.051,45.051,0,0,0-45-45h-17.58A45.072,45.072,0,0,0,346,60H327.71l-6.479-25.914A44.935,44.935,0,0,0,277.575,0H234.422a44.937,44.937,0,0,0-43.657,34.086L184.287,60H166a45.072,45.072,0,0,0-42.42,30H106a45.051,45.051,0,0,0-45,45V467a45.051,45.051,0,0,0,45,45H406a44.885,44.885,0,0,0,45-44.868C451,371.428,451,135,451,135ZM151,105a15.017,15.017,0,0,1,15-15h30a15,15,0,0,0,14.552-11.362l9.319-37.276A14.977,14.977,0,0,1,234.422,30h43.153a14.977,14.977,0,0,1,14.552,11.362l9.319,37.276A15,15,0,0,0,316,90h30a15.017,15.017,0,0,1,15,15v15H151V105ZM416.642,477.64A14.986,14.986,0,0,1,406,482H106a15.016,15.016,0,0,1-15-15V135a15.017,15.017,0,0,1,15-15h15v15a15,15,0,0,0,15,15H376a15,15,0,0,0,15-15V120h15a15.017,15.017,0,0,1,15,15s0,236.429,0,332.133A14.706,14.706,0,0,1,416.642,477.64Z" fill="#fff"/>
      </g>
    </g>
    <g id="Group_74" data-name="Group 74">
      <g id="Group_73" data-name="Group 73">
        <path id="Path_102" data-name="Path 102" d="M236.6,185.394a15,15,0,0,0-21.211,0L166,234.787,146.6,215.394a15,15,0,0,0-21.213,21.213l30,30a15,15,0,0,0,21.212,0l60-60A15,15,0,0,0,236.6,185.394Z" fill="#fff"/>
      </g>
    </g>
    <g id="Group_76" data-name="Group 76">
      <g id="Group_75" data-name="Group 75">
        <path id="Path_103" data-name="Path 103" d="M236.6,275.394a15,15,0,0,0-21.211,0L166,324.787,146.6,305.394a15,15,0,0,0-21.213,21.213l30,30a15,15,0,0,0,21.212,0l60-60A15,15,0,0,0,236.6,275.394Z" fill="#fff"/>
      </g>
    </g>
    <g id="Group_78" data-name="Group 78">
      <g id="Group_77" data-name="Group 77">
        <path id="Path_104" data-name="Path 104" d="M236.6,365.394a15,15,0,0,0-21.211,0L166,414.787,146.6,395.394a15,15,0,0,0-21.213,21.213l30,30a15,15,0,0,0,21.212,0l60-60A15,15,0,0,0,236.6,365.394Z" fill="#fff"/>
      </g>
    </g>
    <g id="Group_80" data-name="Group 80">
      <g id="Group_79" data-name="Group 79">
        <path id="Path_105" data-name="Path 105" d="M376,211H286a15,15,0,0,0,0,30h90a15,15,0,0,0,0-30Z" fill="#fff"/>
      </g>
    </g>
    <g id="Group_82" data-name="Group 82">
      <g id="Group_81" data-name="Group 81">
        <path id="Path_106" data-name="Path 106" d="M376,301H286a15,15,0,0,0,0,30h90a15,15,0,0,0,0-30Z" fill="#fff"/>
      </g>
    </g>
    <g id="Group_84" data-name="Group 84">
      <g id="Group_83" data-name="Group 83">
        <path id="Path_107" data-name="Path 107" d="M376,391H286a15,15,0,0,0,0,30h90a15,15,0,0,0,0-30Z" fill="#fff"/>
      </g>
    </g>
    <g id="Group_86" data-name="Group 86">
      <g id="Group_85" data-name="Group 85">
        <circle id="Ellipse_21" data-name="Ellipse 21" cx="15" cy="15" r="15" transform="translate(241 60)" fill="#fff"/>
      </g>
    </g>
  </g>
</svg>
