<svg id="Component_39_1" data-name="Component 39 – 1" xmlns="http://www.w3.org/2000/svg" width="54" height="70" viewBox="0 0 54 70">
  <path id="Path_95" data-name="Path 95" d="M26,26h2V61.5H26Z" transform="translate(-10 -2)" fill="#fff"/>
  <path id="Path_96" data-name="Path 96" d="M36,26h2V61.5H36Z" transform="translate(-10 -2)" fill="#fff"/>
  <path id="Path_97" data-name="Path 97" d="M46,26h2V61.5H46Z" transform="translate(-10 -2)" fill="#fff"/>
  <path id="Path_98" data-name="Path 98" d="M45,10H29a1,1,0,0,1-1-1V5a3,3,0,0,1,3-3H43a3,3,0,0,1,3,3V9A1,1,0,0,1,45,10ZM30,8H44V5a1,1,0,0,0-1-1H31a1,1,0,0,0-1,1Z" transform="translate(-10 -2)" fill="#fff"/>
  <path id="Path_99" data-name="Path 99" d="M63,18H11a1,1,0,0,1-1-1V13a5.006,5.006,0,0,1,5-5H59a5.006,5.006,0,0,1,5,5v4A1,1,0,0,1,63,18ZM12,16H62V13a3,3,0,0,0-3-3H15a3,3,0,0,0-3,3Z" transform="translate(-10 -2)" fill="#fff"/>
  <path id="Path_100" data-name="Path 100" d="M54.143,72H19.857a3.011,3.011,0,0,1-2.992-2.778L13,17.074A1,1,0,0,1,14,16H60a1,1,0,0,1,1,1.074L57.134,69.222A3.011,3.011,0,0,1,54.143,72ZM15.077,18,18.86,69.074a1,1,0,0,0,1,.926H54.143a1,1,0,0,0,1-.926L58.923,18Z" transform="translate(-10 -2)" fill="#fff"/>
</svg>
