<svg height="512" viewBox="0 0 74 74" width="512" xmlns="http://www.w3.org/2000/svg"><g id="Numbers"><text font-family="ArialMT, Arial" font-size="18" transform="translate(30.995 -266.544)">1<tspan letter-spacing="-.074em" x="-4.337" y="124">1</tspan><tspan x="4.337" y="124">1</tspan><tspan x="-5.005" y="248">21</tspan><tspan x="-5.005" y="372">31</tspan><tspan x="-5.005" y="496">41</tspan><tspan x="-5.005" y="620">51</tspan><tspan x="-5.005" y="744">61</tspan><tspan x="-5.005" y="868">71</tspan><tspan x="-5.005" y="992">81</tspan><tspan x="-5.005" y="1116">91</tspan><tspan x="-10.011" y="1240">101</tspan><tspan letter-spacing="-.074em" x="-8.675" y="1364">11</tspan><tspan x="8.675" y="1364">1</tspan><tspan x="-10.011" y="1488">121</tspan><tspan x="-10.011" y="1612">131</tspan><tspan x="-10.011" y="1736">141</tspan><tspan x="-10.011" y="1860">151</tspan><tspan x="-10.011" y="1984">161</tspan><tspan x="-10.011" y="2108">171</tspan><tspan x="-10.011" y="2232">181</tspan><tspan x="-10.011" y="2356">191</tspan><tspan x="-10.011" y="2480">201</tspan><tspan x="-9.343" y="2604">2</tspan><tspan letter-spacing="-.074em" x=".668" y="2604">1</tspan><tspan x="9.343" y="2604">1</tspan><tspan x="-10.011" y="2728">221</tspan><tspan x="-10.011" y="2852">231</tspan><tspan x="-10.011" y="2976">241</tspan><tspan x="-10.011" y="3100">251</tspan><tspan x="-10.011" y="3224">261</tspan><tspan x="-10.011" y="3348">271</tspan><tspan x="-10.011" y="3472">281</tspan><tspan x="-10.011" y="3596">291</tspan></text></g><g id="Icons"><path d="m26 26h2v35.5h-2z"/><path d="m36 26h2v35.5h-2z"/><path d="m46 26h2v35.5h-2z"/><path d="m45 10h-16a1 1 0 0 1 -1-1v-4a3 3 0 0 1 3-3h12a3 3 0 0 1 3 3v4a1 1 0 0 1 -1 1zm-15-2h14v-3a1 1 0 0 0 -1-1h-12a1 1 0 0 0 -1 1z"/><path d="m63 18h-52a1 1 0 0 1 -1-1v-4a5.006 5.006 0 0 1 5-5h44a5.006 5.006 0 0 1 5 5v4a1 1 0 0 1 -1 1zm-51-2h50v-3a3 3 0 0 0 -3-3h-44a3 3 0 0 0 -3 3z"/><path d="m54.143 72h-34.286a3.011 3.011 0 0 1 -2.992-2.778l-3.865-52.148a1 1 0 0 1 1-1.074h46a1 1 0 0 1 1 1.074l-3.866 52.148a3.011 3.011 0 0 1 -2.991 2.778zm-39.066-54 3.783 51.074a1 1 0 0 0 1 .926h34.283a1 1 0 0 0 1-.926l3.78-51.074z"/></g></svg>